<mxfile host="app.diagrams.net" modified="2023-12-29T15:07:27.813Z" agent="Mozilla/5.0 (Windows NT 10.0; Win64; x64) AppleWebKit/537.36 (KHTML, like Gecko) Chrome/120.0.0.0 Safari/537.36" etag="uDGv0RxkHfLzjB6jbCCb" version="22.1.16" type="device">
  <diagram name="Page-1" id="13e1069c-82ec-6db2-03f1-153e76fe0fe0">
    <mxGraphModel dx="672" dy="803" grid="1" gridSize="10" guides="1" tooltips="1" connect="1" arrows="1" fold="1" page="1" pageScale="1" pageWidth="1100" pageHeight="850" background="none" math="0" shadow="0">
      <root>
        <mxCell id="0" />
        <mxCell id="1" parent="0" />
        <mxCell id="ALCXyBSr68jy7W77PstV-2" value="Client" style="rounded=1;whiteSpace=wrap;html=1;" vertex="1" parent="1">
          <mxGeometry x="260" y="40" width="120" height="60" as="geometry" />
        </mxCell>
        <mxCell id="ALCXyBSr68jy7W77PstV-3" value="TravelAgent" style="rounded=1;whiteSpace=wrap;html=1;" vertex="1" parent="1">
          <mxGeometry x="80" y="40" width="120" height="60" as="geometry" />
        </mxCell>
        <mxCell id="ALCXyBSr68jy7W77PstV-4" value="Tour" style="rounded=1;whiteSpace=wrap;html=1;" vertex="1" parent="1">
          <mxGeometry x="440" y="40" width="120" height="60" as="geometry" />
        </mxCell>
        <mxCell id="ALCXyBSr68jy7W77PstV-8" value="" style="endArrow=none;dashed=1;html=1;rounded=0;entryX=0.5;entryY=1;entryDx=0;entryDy=0;" edge="1" parent="1" source="ALCXyBSr68jy7W77PstV-23" target="ALCXyBSr68jy7W77PstV-3">
          <mxGeometry width="50" height="50" relative="1" as="geometry">
            <mxPoint x="140" y="480" as="sourcePoint" />
            <mxPoint x="330" y="250" as="targetPoint" />
          </mxGeometry>
        </mxCell>
        <mxCell id="ALCXyBSr68jy7W77PstV-5" value="" style="rounded=0;whiteSpace=wrap;html=1;" vertex="1" parent="1">
          <mxGeometry x="130" y="120" width="20" height="310" as="geometry" />
        </mxCell>
        <mxCell id="ALCXyBSr68jy7W77PstV-9" value="" style="endArrow=none;dashed=1;html=1;rounded=0;entryX=0.5;entryY=1;entryDx=0;entryDy=0;" edge="1" parent="1" source="ALCXyBSr68jy7W77PstV-26" target="ALCXyBSr68jy7W77PstV-2">
          <mxGeometry width="50" height="50" relative="1" as="geometry">
            <mxPoint x="320" y="480" as="sourcePoint" />
            <mxPoint x="320" y="270" as="targetPoint" />
          </mxGeometry>
        </mxCell>
        <mxCell id="ALCXyBSr68jy7W77PstV-6" value="" style="rounded=0;whiteSpace=wrap;html=1;" vertex="1" parent="1">
          <mxGeometry x="310" y="140" width="20" height="250" as="geometry" />
        </mxCell>
        <mxCell id="ALCXyBSr68jy7W77PstV-11" value="" style="endArrow=none;dashed=1;html=1;rounded=0;entryX=0.5;entryY=1;entryDx=0;entryDy=0;" edge="1" parent="1" source="ALCXyBSr68jy7W77PstV-7">
          <mxGeometry width="50" height="50" relative="1" as="geometry">
            <mxPoint x="499.37" y="560" as="sourcePoint" />
            <mxPoint x="499.37" y="100" as="targetPoint" />
          </mxGeometry>
        </mxCell>
        <mxCell id="ALCXyBSr68jy7W77PstV-12" value="" style="endArrow=classic;html=1;rounded=0;exitX=1.04;exitY=0.103;exitDx=0;exitDy=0;exitPerimeter=0;entryX=-0.108;entryY=0.054;entryDx=0;entryDy=0;entryPerimeter=0;" edge="1" parent="1" source="ALCXyBSr68jy7W77PstV-5" target="ALCXyBSr68jy7W77PstV-6">
          <mxGeometry width="50" height="50" relative="1" as="geometry">
            <mxPoint x="300" y="290" as="sourcePoint" />
            <mxPoint x="350" y="240" as="targetPoint" />
          </mxGeometry>
        </mxCell>
        <mxCell id="ALCXyBSr68jy7W77PstV-13" value="&amp;nbsp;Регистрация объека" style="text;strokeColor=none;fillColor=none;align=left;verticalAlign=middle;spacingLeft=4;spacingRight=4;overflow=hidden;points=[[0,0.5],[1,0.5]];portConstraint=eastwest;rotatable=0;whiteSpace=wrap;html=1;" vertex="1" parent="1">
          <mxGeometry x="160" y="130" width="130" height="30" as="geometry" />
        </mxCell>
        <mxCell id="ALCXyBSr68jy7W77PstV-14" value="" style="endArrow=classic;html=1;rounded=0;exitX=1.04;exitY=0.103;exitDx=0;exitDy=0;exitPerimeter=0;entryX=-0.122;entryY=0.166;entryDx=0;entryDy=0;entryPerimeter=0;" edge="1" parent="1" target="ALCXyBSr68jy7W77PstV-7">
          <mxGeometry width="50" height="50" relative="1" as="geometry">
            <mxPoint x="330" y="200" as="sourcePoint" />
            <mxPoint x="487" y="200" as="targetPoint" />
          </mxGeometry>
        </mxCell>
        <mxCell id="ALCXyBSr68jy7W77PstV-15" value="" style="endArrow=none;dashed=1;html=1;rounded=0;entryX=0.5;entryY=1;entryDx=0;entryDy=0;" edge="1" parent="1" source="ALCXyBSr68jy7W77PstV-28" target="ALCXyBSr68jy7W77PstV-7">
          <mxGeometry width="50" height="50" relative="1" as="geometry">
            <mxPoint x="500" y="480" as="sourcePoint" />
            <mxPoint x="499.37" y="100" as="targetPoint" />
          </mxGeometry>
        </mxCell>
        <mxCell id="ALCXyBSr68jy7W77PstV-7" value="" style="rounded=0;whiteSpace=wrap;html=1;" vertex="1" parent="1">
          <mxGeometry x="490" y="170" width="20" height="180" as="geometry" />
        </mxCell>
        <mxCell id="ALCXyBSr68jy7W77PstV-16" value="Добавление тура" style="text;strokeColor=none;fillColor=none;align=left;verticalAlign=middle;spacingLeft=4;spacingRight=4;overflow=hidden;points=[[0,0.5],[1,0.5]];portConstraint=eastwest;rotatable=0;whiteSpace=wrap;html=1;" vertex="1" parent="1">
          <mxGeometry x="340" y="170" width="130" height="30" as="geometry" />
        </mxCell>
        <mxCell id="ALCXyBSr68jy7W77PstV-17" value="" style="endArrow=classic;html=1;rounded=0;exitX=-0.063;exitY=0.827;exitDx=0;exitDy=0;exitPerimeter=0;entryX=1.048;entryY=0.714;entryDx=0;entryDy=0;entryPerimeter=0;" edge="1" parent="1" source="ALCXyBSr68jy7W77PstV-7" target="ALCXyBSr68jy7W77PstV-6">
          <mxGeometry width="50" height="50" relative="1" as="geometry">
            <mxPoint x="330" y="230" as="sourcePoint" />
            <mxPoint x="380" y="250" as="targetPoint" />
          </mxGeometry>
        </mxCell>
        <mxCell id="ALCXyBSr68jy7W77PstV-19" value="Информация о туре" style="text;strokeColor=none;fillColor=none;align=left;verticalAlign=middle;spacingLeft=4;spacingRight=4;overflow=hidden;points=[[0,0.5],[1,0.5]];portConstraint=eastwest;rotatable=0;whiteSpace=wrap;html=1;" vertex="1" parent="1">
          <mxGeometry x="350" y="290" width="130" height="30" as="geometry" />
        </mxCell>
        <mxCell id="ALCXyBSr68jy7W77PstV-21" value="" style="endArrow=classic;html=1;rounded=0;exitX=0;exitY=0.878;exitDx=0;exitDy=0;exitPerimeter=0;entryX=1.048;entryY=0.714;entryDx=0;entryDy=0;entryPerimeter=0;" edge="1" parent="1" source="ALCXyBSr68jy7W77PstV-6">
          <mxGeometry width="50" height="50" relative="1" as="geometry">
            <mxPoint x="308" y="360" as="sourcePoint" />
            <mxPoint x="150" y="360" as="targetPoint" />
          </mxGeometry>
        </mxCell>
        <mxCell id="ALCXyBSr68jy7W77PstV-22" value="Итоговая информация о клиенте" style="text;strokeColor=none;fillColor=none;align=left;verticalAlign=middle;spacingLeft=4;spacingRight=4;overflow=hidden;points=[[0,0.5],[1,0.5]];portConstraint=eastwest;rotatable=0;whiteSpace=wrap;html=1;" vertex="1" parent="1">
          <mxGeometry x="160" y="330" width="140" height="30" as="geometry" />
        </mxCell>
        <mxCell id="ALCXyBSr68jy7W77PstV-24" value="" style="endArrow=none;dashed=1;html=1;rounded=0;entryX=0.5;entryY=1;entryDx=0;entryDy=0;" edge="1" parent="1" target="ALCXyBSr68jy7W77PstV-23">
          <mxGeometry width="50" height="50" relative="1" as="geometry">
            <mxPoint x="140" y="480" as="sourcePoint" />
            <mxPoint x="140" y="100" as="targetPoint" />
          </mxGeometry>
        </mxCell>
        <mxCell id="ALCXyBSr68jy7W77PstV-23" value="" style="shape=umlDestroy;whiteSpace=wrap;html=1;strokeWidth=3;targetShapes=umlLifeline;" vertex="1" parent="1">
          <mxGeometry x="135" y="470" width="10" height="10" as="geometry" />
        </mxCell>
        <mxCell id="ALCXyBSr68jy7W77PstV-27" value="" style="endArrow=none;dashed=1;html=1;rounded=0;entryX=0.5;entryY=1;entryDx=0;entryDy=0;" edge="1" parent="1" target="ALCXyBSr68jy7W77PstV-26">
          <mxGeometry width="50" height="50" relative="1" as="geometry">
            <mxPoint x="320" y="480" as="sourcePoint" />
            <mxPoint x="320" y="100" as="targetPoint" />
          </mxGeometry>
        </mxCell>
        <mxCell id="ALCXyBSr68jy7W77PstV-26" value="" style="shape=umlDestroy;whiteSpace=wrap;html=1;strokeWidth=3;targetShapes=umlLifeline;" vertex="1" parent="1">
          <mxGeometry x="315" y="470" width="10" height="10" as="geometry" />
        </mxCell>
        <mxCell id="ALCXyBSr68jy7W77PstV-29" value="" style="endArrow=none;dashed=1;html=1;rounded=0;entryX=0.5;entryY=1;entryDx=0;entryDy=0;" edge="1" parent="1" target="ALCXyBSr68jy7W77PstV-28">
          <mxGeometry width="50" height="50" relative="1" as="geometry">
            <mxPoint x="500" y="480" as="sourcePoint" />
            <mxPoint x="500" y="350" as="targetPoint" />
          </mxGeometry>
        </mxCell>
        <mxCell id="ALCXyBSr68jy7W77PstV-28" value="" style="shape=umlDestroy;whiteSpace=wrap;html=1;strokeWidth=3;targetShapes=umlLifeline;" vertex="1" parent="1">
          <mxGeometry x="495" y="470" width="10" height="10" as="geometry" />
        </mxCell>
      </root>
    </mxGraphModel>
  </diagram>
</mxfile>
